<svg width="20" height="20" viewBox="0 0 20 20" fill="none" xmlns="http://www.w3.org/2000/svg">
<path d="M13.3335 2.5V5.83333M6.66683 2.5V5.83333M3.3335 9.16667H16.6668M5.8335 11.6667H5.84433M8.34183 11.6667H8.346M10.8418 11.6667H10.846M13.346 11.6667H13.3502M10.846 14.1667H10.8502M5.84183 14.1667H5.846M8.34183 14.1667H8.346M3.3335 5.83333C3.3335 5.39131 3.50909 4.96738 3.82165 4.65482C4.13421 4.34226 4.55814 4.16667 5.00016 4.16667H15.0002C15.4422 4.16667 15.8661 4.34226 16.1787 4.65482C16.4912 4.96738 16.6668 5.39131 16.6668 5.83333V15.8333C16.6668 16.2754 16.4912 16.6993 16.1787 17.0118C15.8661 17.3244 15.4422 17.5 15.0002 17.5H5.00016C4.55814 17.5 4.13421 17.3244 3.82165 17.0118C3.50909 16.6993 3.3335 16.2754 3.3335 15.8333V5.83333Z" stroke="#ACACB9" stroke-width="1.67" stroke-linecap="round" stroke-linejoin="round"/>
</svg>
