<svg width="24" height="24" viewBox="0 0 24 24" fill="none" xmlns="http://www.w3.org/2000/svg">
<g filter="url(#filter0_i_3323_6451)">
<path fill-rule="evenodd" clip-rule="evenodd" d="M10.4099 15.3992H10.5652C11.7236 15.3992 12.8193 14.9663 13.6702 14.1721C14.0912 13.778 14.1151 13.1152 13.721 12.6942C13.3269 12.2732 12.6641 12.2493 12.2431 12.6434C11.7624 13.0943 11.1325 13.3301 10.4756 13.3063C9.81877 13.2824 9.2097 13.0047 8.75887 12.524L4.75215 8.23366C4.30132 7.75298 4.06546 7.12301 4.08934 6.46617C4.11323 5.80933 4.39089 5.20026 4.87158 4.74943C5.86281 3.8209 7.42728 3.87464 8.35581 4.86885L11.7326 8.48147C12.1267 8.90245 12.7895 8.92633 13.2105 8.53223C13.6314 8.13812 13.6553 7.47531 13.2612 7.05434L9.88446 3.44172C8.16772 1.60854 5.28061 1.51002 3.44445 3.22377C2.55771 4.05378 2.04418 5.18235 2.00239 6.3975C1.96357 7.61564 2.39947 8.77406 3.22948 9.66677L7.2362 13.9571C8.06621 14.8439 9.19478 15.3574 10.4099 15.3992ZM17.2853 22.2723H17.4436L17.4495 22.2753C18.608 22.2753 19.7037 21.8424 20.5546 21.0482C21.4413 20.2182 21.9549 19.0896 21.9967 17.8745C22.0385 16.6564 21.6026 15.4979 20.7725 14.6082L16.7658 10.3179C15.9358 9.43112 14.8072 8.9176 13.5921 8.8758C12.374 8.834 11.2155 9.2699 10.3258 10.0999C9.90484 10.494 9.88095 11.1568 10.2751 11.5778C10.6692 11.9988 11.332 12.0227 11.7529 11.6286C12.2336 11.1777 12.8576 10.9448 13.5204 10.9657C14.1773 10.9896 14.7864 11.2673 15.2372 11.748L19.2439 16.0383C19.6947 16.519 19.9306 17.149 19.9067 17.8058C19.8828 18.4627 19.6052 19.0717 19.1245 19.5226C18.6438 19.9734 18.0138 20.2063 17.357 20.1854C16.7001 20.1615 16.0911 19.8838 15.6402 19.4031L12.2127 15.7338C11.8186 15.3128 11.1558 15.2889 10.7348 15.683C10.3139 16.0771 10.29 16.74 10.6841 17.1609L14.1116 20.8303C14.9416 21.717 16.0702 22.2305 17.2853 22.2723Z" fill="url(#paint0_linear_3323_6451)"/>
</g>
<defs>
<filter id="filter0_i_3323_6451" x="2" y="1" width="19.9995" height="21.2754" filterUnits="userSpaceOnUse" color-interpolation-filters="sRGB">
<feFlood flood-opacity="0" result="BackgroundImageFix"/>
<feBlend mode="normal" in="SourceGraphic" in2="BackgroundImageFix" result="shape"/>
<feColorMatrix in="SourceAlpha" type="matrix" values="0 0 0 0 0 0 0 0 0 0 0 0 0 0 0 0 0 0 127 0" result="hardAlpha"/>
<feOffset dy="-1"/>
<feGaussianBlur stdDeviation="0.85"/>
<feComposite in2="hardAlpha" operator="arithmetic" k2="-1" k3="1"/>
<feColorMatrix type="matrix" values="0 0 0 0 0 0 0 0 0 0 0 0 0 0 0 0 0 0 0.15 0"/>
<feBlend mode="normal" in2="shape" result="effect1_innerShadow_3323_6451"/>
</filter>
<linearGradient id="paint0_linear_3323_6451" x1="11.9997" y1="2" x2="11.9997" y2="22.2753" gradientUnits="userSpaceOnUse">
<stop stop-color="#85C8FF"/>
<stop offset="1" stop-color="#008CFF"/>
</linearGradient>
</defs>
</svg>
