<svg width="24" height="24" viewBox="0 0 24 24" fill="none" xmlns="http://www.w3.org/2000/svg">
<g filter="url(#filter0_i_3323_6421)">
<path d="M14.6259 2C18.6984 2 21.9998 4.91378 21.9998 8.50808C21.9998 10.113 21.3414 11.5819 20.2503 12.7166L20.2464 12.7206C20.0611 12.9148 20.0408 13.2135 20.1981 13.431L21.5614 15.3159C21.7257 15.5431 21.5367 15.8564 21.259 15.8169L21.1467 15.801C19.8712 15.6198 18.6222 15.2859 17.4263 14.8068L17.3858 14.7905C17.2177 14.6935 17.0179 14.6682 16.8309 14.72C16.1346 14.9123 15.394 15.0163 14.6259 15.0163C10.5534 15.0163 7.25195 12.1025 7.25195 8.50808C7.25195 4.91378 10.5534 2 14.6259 2Z" fill="white"/>
</g>
<path d="M16.9502 8.46451C16.9502 8.83063 17.247 9.12744 17.6131 9.12744C17.9792 9.12744 18.276 8.83063 18.276 8.46451C18.276 8.09838 17.9792 7.80157 17.6131 7.80157C17.247 7.80157 16.9502 8.09838 16.9502 8.46451Z" fill="#ACACB9"/>
<path d="M14.0273 8.46451C14.0273 8.83063 14.3242 9.12744 14.6903 9.12744C15.0563 9.12744 15.3531 8.83063 15.3531 8.46451C15.3531 8.09838 15.0563 7.80157 14.6903 7.80157C14.3242 7.80157 14.0273 8.09838 14.0273 8.46451Z" fill="#ACACB9"/>
<path d="M11.104 8.46451C11.104 8.83063 11.4008 9.12744 11.7669 9.12744C12.133 9.12744 12.4298 8.83063 12.4298 8.46451C12.4298 8.09838 12.133 7.80157 11.7669 7.80157C11.4008 7.80157 11.104 8.09838 11.104 8.46451Z" fill="#ACACB9"/>
<g filter="url(#filter1_i_3323_6421)">
<path d="M8.03655 10.7604C4.70264 10.7604 2 13.1458 2 16.0882C2 17.402 2.53901 18.6045 3.43221 19.5333L3.4354 19.5367C3.58709 19.6956 3.60365 19.9402 3.47499 20.1182L2.35893 21.6613C2.22441 21.8473 2.37908 22.1037 2.60647 22.0714L2.69842 22.0584C3.74249 21.91 4.76497 21.6367 5.74394 21.2446L5.77716 21.2312C5.91477 21.1518 6.07829 21.1311 6.23142 21.1734C6.80149 21.3309 7.40765 21.416 8.03655 21.416C11.3704 21.416 14.0731 19.0306 14.0731 16.0882C14.0731 13.1458 11.3704 10.7604 8.03655 10.7604Z" fill="#008CFF"/>
</g>
<path d="M6.13366 16.0525C6.13366 16.3522 5.89074 16.5952 5.59095 16.5952C5.29126 16.5952 5.04834 16.3522 5.04834 16.0525C5.04834 15.7528 5.29126 15.5098 5.59095 15.5098C5.89074 15.5098 6.13366 15.7528 6.13366 16.0525Z" fill="white"/>
<path d="M8.52672 16.0525C8.52672 16.3522 8.2838 16.5952 7.98401 16.5952C7.68432 16.5952 7.44141 16.3522 7.44141 16.0525C7.44141 15.7528 7.68432 15.5098 7.98401 15.5098C8.2838 15.5098 8.52672 15.7528 8.52672 16.0525Z" fill="white"/>
<path d="M10.9198 16.0525C10.9198 16.3522 10.6769 16.5952 10.3771 16.5952C10.0774 16.5952 9.83447 16.3522 9.83447 16.0525C9.83447 15.7528 10.0774 15.5098 10.3771 15.5098C10.6769 15.5098 10.9198 15.7528 10.9198 16.0525Z" fill="white"/>
<defs>
<filter id="filter0_i_3323_6421" x="7.25195" y="1.36473" width="14.748" height="14.4556" filterUnits="userSpaceOnUse" color-interpolation-filters="sRGB">
<feFlood flood-opacity="0" result="BackgroundImageFix"/>
<feBlend mode="normal" in="SourceGraphic" in2="BackgroundImageFix" result="shape"/>
<feColorMatrix in="SourceAlpha" type="matrix" values="0 0 0 0 0 0 0 0 0 0 0 0 0 0 0 0 0 0 127 0" result="hardAlpha"/>
<feOffset dy="-0.635271"/>
<feGaussianBlur stdDeviation="0.865557"/>
<feComposite in2="hardAlpha" operator="arithmetic" k2="-1" k3="1"/>
<feColorMatrix type="matrix" values="0 0 0 0 0 0 0 0 0 0 0 0 0 0 0 0 0 0 0.25 0"/>
<feBlend mode="normal" in2="shape" result="effect1_innerShadow_3323_6421"/>
</filter>
<filter id="filter1_i_3323_6421" x="2" y="10.125" width="12.0732" height="11.9492" filterUnits="userSpaceOnUse" color-interpolation-filters="sRGB">
<feFlood flood-opacity="0" result="BackgroundImageFix"/>
<feBlend mode="normal" in="SourceGraphic" in2="BackgroundImageFix" result="shape"/>
<feColorMatrix in="SourceAlpha" type="matrix" values="0 0 0 0 0 0 0 0 0 0 0 0 0 0 0 0 0 0 127 0" result="hardAlpha"/>
<feOffset dy="-0.635271"/>
<feGaussianBlur stdDeviation="0.865557"/>
<feComposite in2="hardAlpha" operator="arithmetic" k2="-1" k3="1"/>
<feColorMatrix type="matrix" values="0 0 0 0 0 0 0 0 0 0 0 0 0 0 0 0 0 0 0.25 0"/>
<feBlend mode="normal" in2="shape" result="effect1_innerShadow_3323_6421"/>
</filter>
</defs>
</svg>
