<svg width="24" height="24" viewBox="0 0 24 24" fill="none" xmlns="http://www.w3.org/2000/svg">
<path d="M9.36152 18.3507L9.35384 18.3477L9.34704 18.345L9.3467 18.3448C8.97562 18.1968 8.55124 18.2765 8.26712 18.5605L8.26711 18.5605L6.98644 19.8412C6.66301 20.1646 6.13863 20.1646 5.8152 19.8412L4.15872 18.1847C3.83529 17.8613 3.83529 17.3369 4.15872 17.0134L5.31497 15.8572C5.61364 15.5585 5.68602 15.1064 5.50722 14.7259L5.50716 14.7258C5.48599 14.6809 5.46541 14.6358 5.44522 14.5903L5.44519 14.5902C5.28579 14.2317 4.93146 13.9994 4.53858 13.9994H2.91028C2.45285 13.9994 2.08211 13.6286 2.08211 13.1712V10.8287C2.08211 10.3712 2.45286 10.0004 2.91028 10.0004H4.28708C4.7143 10.0004 5.08735 9.72567 5.22724 9.3245C5.22724 9.32449 5.22725 9.32449 5.22725 9.32448L9.36152 18.3507ZM9.36152 18.3507C9.743 18.5019 10.0005 18.865 10.0005 19.2781V21.0896C10.0005 21.547 10.3713 21.9179 10.8288 21.9179H13.1712C13.6287 21.9179 13.9995 21.547 13.9995 21.0896V19.2781C13.9995 18.865 14.257 18.5019 14.6385 18.3507M9.36152 18.3507H14.6385M14.6385 18.3507L14.6462 18.3477L14.653 18.345L14.6533 18.3448C15.0244 18.1968 15.4488 18.2765 15.7329 18.5605L15.7329 18.5605L17.0136 19.8412C17.337 20.1646 17.8614 20.1646 18.1848 19.8412L19.8413 18.1847C20.1647 17.8613 20.1647 17.3369 19.8413 17.0134L18.6851 15.8572C18.3863 15.5585 18.3141 15.1064 18.4929 14.7259C18.514 14.681 18.5346 14.6357 18.5549 14.5901C18.7143 14.2316 19.0686 13.9994 19.4614 13.9994H21.0897C21.5471 13.9994 21.9179 13.6286 21.9179 13.1712V10.8287C21.9179 10.3712 21.5471 10.0004 21.0897 10.0004H19.7129C19.2857 10.0004 18.9126 9.72567 18.7728 9.3245C18.7375 9.22357 18.7001 9.12358 18.6606 9.02463C18.5126 8.65495 18.5952 8.23248 18.8777 7.95L19.8413 6.98634L19.8993 7.0444L19.8413 6.98634C20.1647 6.6629 20.1647 6.13853 19.8413 5.81509L18.1848 4.15862C17.8614 3.83518 17.337 3.83518 17.0136 4.15862L16.1698 5.00233C15.8727 5.29949 15.4233 5.36853 15.0456 5.19084L15.0806 5.11654L15.0456 5.19083C14.9114 5.12765 14.7749 5.06857 14.6364 5.01369C14.2554 4.86283 13.9995 4.49947 13.9995 4.08747V2.91017C13.9995 2.45275 13.6287 2.082 13.1712 2.082H10.8288C10.3713 2.082 10.0005 2.45275 10.0005 2.91017V4.08747C10.0005 4.49947 9.74459 4.86283 9.36362 5.0137C9.22507 5.06857 9.08861 5.12765 8.95437 5.19083L8.9194 5.11654L8.95436 5.19084C8.57668 5.36853 8.12732 5.29949 7.83015 5.00233L6.98644 4.15862C6.66301 3.83518 6.13863 3.83518 5.8152 4.15862L4.15872 5.81509C3.83529 6.13853 3.83529 6.6629 4.15872 6.98634L5.12239 7.95L5.1224 7.95001C5.40476 8.23249 5.4874 8.65495 5.33943 9.02463L14.6385 18.3507ZM12 16.2153C9.63152 16.2153 7.71146 14.2952 7.71146 11.9267C7.71146 9.55815 9.63153 7.63819 12 7.63819C14.3685 7.63819 16.2885 9.55815 16.2885 11.9267C16.2885 14.2952 14.3685 16.2153 12 16.2153Z" fill="url(#paint0_linear_3361_1188)" stroke="url(#paint1_linear_3361_1188)" stroke-width="0.164218"/>
<defs>
<linearGradient id="paint0_linear_3361_1188" x1="2.23094" y1="1.99989" x2="21.7691" y2="22" gradientUnits="userSpaceOnUse">
<stop offset="0.118634" stop-color="white"/>
<stop offset="0.645" stop-color="#999999"/>
<stop offset="1" stop-color="white"/>
</linearGradient>
<linearGradient id="paint1_linear_3361_1188" x1="5.6298" y1="1.99989" x2="18.3702" y2="22" gradientUnits="userSpaceOnUse">
<stop stop-color="white"/>
<stop offset="0.645" stop-color="#999999"/>
<stop offset="1" stop-color="white"/>
</linearGradient>
</defs>
</svg>
