<svg width="20" height="21" viewBox="0 0 20 21" fill="none" xmlns="http://www.w3.org/2000/svg">
<path d="M14.1667 3.28332C15.4336 4.01473 16.4856 5.06672 17.217 6.33356C17.9484 7.6004 18.3334 9.03744 18.3334 10.5003C18.3334 11.9631 17.9483 13.4001 17.2169 14.6669C16.4855 15.9338 15.4335 16.9857 14.1667 17.7171C12.8998 18.4485 11.4628 18.8336 9.99995 18.8335C8.53713 18.8335 7.1001 18.4484 5.83328 17.717C4.56646 16.9856 3.51449 15.9336 2.78311 14.6667C2.05173 13.3999 1.66671 11.9628 1.66675 10.5L1.67091 10.23C1.71758 8.79082 2.13637 7.38829 2.88645 6.15915C3.63652 4.93001 4.69229 3.9162 5.95082 3.21656C7.20936 2.51692 8.6277 2.15532 10.0676 2.16702C11.5075 2.17872 12.9198 2.56332 14.1667 3.28332ZM10.0001 13C9.77907 13 9.56711 13.0878 9.41083 13.2441C9.25455 13.4003 9.16675 13.6123 9.16675 13.8333V13.8417C9.16675 14.0627 9.25455 14.2746 9.41083 14.4309C9.56711 14.5872 9.77907 14.675 10.0001 14.675C10.2211 14.675 10.4331 14.5872 10.5893 14.4309C10.7456 14.2746 10.8334 14.0627 10.8334 13.8417V13.8333C10.8334 13.6123 10.7456 13.4003 10.5893 13.2441C10.4331 13.0878 10.2211 13 10.0001 13ZM10.0001 7.16666C9.77907 7.16666 9.56711 7.25446 9.41083 7.41074C9.25455 7.56702 9.16675 7.77898 9.16675 7.99999V11.3333C9.16675 11.5543 9.25455 11.7663 9.41083 11.9226C9.56711 12.0789 9.77907 12.1667 10.0001 12.1667C10.2211 12.1667 10.4331 12.0789 10.5893 11.9226C10.7456 11.7663 10.8334 11.5543 10.8334 11.3333V7.99999C10.8334 7.77898 10.7456 7.56702 10.5893 7.41074C10.4331 7.25446 10.2211 7.16666 10.0001 7.16666Z" fill="#ED4B4B"/>
</svg>
